<svg width="31" height="31" viewBox="0 0 31 31" fill="none" xmlns="http://www.w3.org/2000/svg">
<g filter="url(#filter0_d_5598_3868)">
<path d="M17.0823 9.34766C17.5677 9.34766 17.9612 8.95416 17.9612 8.46875C17.9612 7.98334 17.5677 7.58984 17.0823 7.58984C16.5969 7.58984 16.2034 7.98334 16.2034 8.46875C16.2034 8.95416 16.5969 9.34766 17.0823 9.34766Z" fill="white"/>
<path d="M20.5979 9.34766C21.0833 9.34766 21.4768 8.95416 21.4768 8.46875C21.4768 7.98334 21.0833 7.58984 20.5979 7.58984C20.1125 7.58984 19.719 7.98334 19.719 8.46875C19.719 8.95416 20.1125 9.34766 20.5979 9.34766Z" fill="white"/>
<path d="M24.1135 9.34766C24.5989 9.34766 24.9924 8.95416 24.9924 8.46875C24.9924 7.98334 24.5989 7.58984 24.1135 7.58984C23.6281 7.58984 23.2346 7.98334 23.2346 8.46875C23.2346 8.95416 23.6281 9.34766 24.1135 9.34766Z" fill="white"/>
<path d="M20.083 28.6836C21.53 28.6836 22.7073 27.5008 22.7073 26.0469V22.5312C22.7073 22.1531 22.4655 21.8175 22.1069 21.6976L16.846 19.9398C16.5884 19.8538 16.3058 19.8916 16.0799 20.0421L13.8426 21.5336C11.4416 20.3943 8.6037 17.5816 7.47495 15.2232L8.96593 12.9867C9.11646 12.7609 9.15425 12.4781 9.06823 12.2207L7.31042 6.95973C7.1906 6.60113 6.85491 6.35938 6.47681 6.35938H2.96118C1.50729 6.35938 0.324463 7.53658 0.324463 8.98361C0.324463 13.8397 2.53251 18.8236 6.38247 22.6575C10.2282 26.4871 15.2219 28.6836 20.083 28.6836ZM2.96118 8.11719H5.84382L7.26472 12.3697L5.74556 14.6484C5.58501 14.8892 5.55331 15.1936 5.66083 15.4623C6.2453 16.9235 7.41495 18.5669 8.95427 20.0898C10.4834 21.6026 12.1349 22.7595 13.6043 23.3472C13.873 23.4547 14.1775 23.423 14.4183 23.2625L16.697 21.7433L20.9495 23.1642V26.0469C20.9495 26.5397 20.5689 26.9258 20.083 26.9258C10.8303 26.9258 2.08228 18.2062 2.08228 8.98361C2.08228 8.49775 2.46835 8.11719 2.96118 8.11719V8.11719Z" fill="white"/>
<path d="M16.7459 18.0698C17.0743 18.2059 17.4524 18.1306 17.7038 17.8793L20.9619 14.6211H24.1135C27.5382 14.6211 30.3245 11.8612 30.3245 8.46875C30.3245 5.07635 27.5382 2.31641 24.1135 2.31641H17.0823C13.6899 2.31641 10.9299 5.07635 10.9299 8.46875C10.9299 11.5628 13.2258 14.1307 16.2034 14.5585V17.2578C16.2034 17.6133 16.4175 17.9337 16.7459 18.0698V18.0698ZM12.6877 8.46875C12.6877 6.04561 14.6591 4.07422 17.0823 4.07422H24.1135C26.569 4.07422 28.5667 6.04561 28.5667 8.46875C28.5667 10.8919 26.569 12.8633 24.1135 12.8633H20.5979C20.3648 12.8633 20.1412 12.9559 19.9765 13.1207L17.9612 15.136V13.7422C17.9612 13.2568 17.5677 12.8633 17.0823 12.8633C14.6591 12.8633 12.6877 10.8919 12.6877 8.46875Z" fill="white"/>
</g>
<defs>
<filter id="filter0_d_5598_3868" x="-14.6755" y="-14.6836" width="66" height="62.3672" filterUnits="userSpaceOnUse" color-interpolation-filters="sRGB">
<feFlood flood-opacity="0" result="BackgroundImageFix"/>
<feColorMatrix in="SourceAlpha" type="matrix" values="0 0 0 0 0 0 0 0 0 0 0 0 0 0 0 0 0 0 127 0" result="hardAlpha"/>
<feOffset dx="3" dy="1"/>
<feGaussianBlur stdDeviation="9"/>
<feComposite in2="hardAlpha" operator="out"/>
<feColorMatrix type="matrix" values="0 0 0 0 0 0 0 0 0 0 0 0 0 0 0 0 0 0 0.2 0"/>
<feBlend mode="normal" in2="BackgroundImageFix" result="effect1_dropShadow_5598_3868"/>
<feBlend mode="normal" in="SourceGraphic" in2="effect1_dropShadow_5598_3868" result="shape"/>
</filter>
</defs>
</svg>
